<?xml version="1.0" standalone="no"?>
<!DOCTYPE svg PUBLIC "-//W3C//DTD SVG 20010904//EN"
 "http://www.w3.org/TR/2001/REC-SVG-20010904/DTD/svg10.dtd">
<svg version="1.0" xmlns="http://www.w3.org/2000/svg"
 width="640.000000pt" height="2010.000000pt" viewBox="0 0 640.000000 2010.000000"
 preserveAspectRatio="xMidYMid meet" style="background:#a175a2;">
<metadata>
Created by potrace 1.16, written by Peter Selinger 2001-2019
</metadata>
<g transform="translate(0.000000,2010.000000) scale(0.100000,-0.100000)"
fill="#825383" stroke="none">
<path d="M0 10050 l0 -10050 3200 0 3200 0 0 10050 0 10050 -3200 0 -3200 0 0
-10050z m6200 9900 l0 -50 50 0 50 0 0 -9850 0 -9850 -50 0 -50 0 0 -50 0 -50
-3000 0 -3000 0 0 50 0 50 -50 0 -50 0 0 9850 0 9850 50 0 50 0 0 50 0 50
3000 0 3000 0 0 -50z"/>
<path d="M300 19850 l0 -50 -50 0 -50 0 0 -9750 0 -9750 50 0 50 0 0 -50 0
-50 2900 0 2900 0 0 50 0 50 50 0 50 0 0 9750 0 9750 -50 0 -50 0 0 50 0 50
-2900 0 -2900 0 0 -50z m5600 -17000 l0 -50 50 0 50 0 0 -1150 0 -1150 -50 0
-50 0 0 -50 0 -50 -2700 0 -2700 0 0 50 0 50 -50 0 -50 0 0 1150 0 1150 50 0
50 0 0 50 0 50 2700 0 2700 0 0 -50z"/>
</g>
</svg>
