<?xml version="1.0" standalone="no"?>
<!DOCTYPE svg PUBLIC "-//W3C//DTD SVG 20010904//EN"
 "http://www.w3.org/TR/2001/REC-SVG-20010904/DTD/svg10.dtd">
<svg version="1.0" xmlns="http://www.w3.org/2000/svg"
 width="248.000000pt" height="119.000000pt" viewBox="0 0 248.000000 119.000000"
 preserveAspectRatio="xMidYMid meet">
<metadata>
Created by potrace 1.16, written by Peter Selinger 2001-2019
</metadata>
<g transform="translate(0.000000,119.000000) scale(0.100000,-0.100000)"
fill="#000000" stroke="none">
<path d="M668 1113 c-35 -46 -39 -130 -8 -180 32 -53 135 -68 195 -29 26 17
65 87 65 117 0 25 -26 77 -53 107 -18 19 -30 22 -96 22 -75 -1 -76 -1 -103
-37z"/>
<path d="M1603 1128 c-27 -30 -53 -82 -53 -107 0 -30 39 -100 65 -117 60 -39
163 -24 195 29 31 50 27 134 -7 180 -28 36 -29 36 -104 37 -66 0 -78 -3 -96
-22z"/>
<path d="M477 915 c-54 -28 -77 -67 -77 -131 0 -43 12 -66 52 -105 27 -25 38
-29 90 -29 52 0 62 3 95 33 31 29 37 41 41 89 6 75 -16 121 -69 142 -49 20
-96 20 -132 1z"/>
<path d="M926 906 c-124 -75 -66 -256 82 -256 47 0 56 4 92 39 37 36 40 42 40
95 0 74 -19 109 -70 130 -56 22 -98 20 -144 -8z"/>
<path d="M1395 911 c-49 -22 -65 -53 -65 -128 0 -51 3 -58 40 -94 36 -35 45
-39 92 -39 40 0 61 6 89 26 83 57 78 183 -9 232 -48 27 -93 28 -147 3z"/>
<path d="M1858 914 c-50 -21 -72 -68 -66 -142 4 -48 10 -60 41 -89 33 -30 43
-33 95 -33 52 0 63 4 90 29 40 39 52 62 52 105 0 115 -100 176 -212 130z"/>
<path d="M705 689 c-39 -19 -65 -71 -65 -130 0 -30 6 -65 13 -79 24 -49 117
-75 181 -50 36 13 86 86 86 125 0 35 -48 118 -79 134 -24 13 -109 13 -136 0z"/>
<path d="M1622 685 c-31 -23 -72 -97 -72 -132 0 -37 51 -110 86 -123 64 -25
157 1 181 50 7 14 13 49 13 79 0 61 -26 112 -68 130 -34 16 -114 13 -140 -4z"/>
<path d="M237 637 c-36 -29 -45 -82 -23 -129 20 -41 51 -58 107 -58 91 0 134
133 62 190 -36 28 -109 27 -146 -3z"/>
<path d="M1155 635 c-20 -19 -25 -34 -25 -75 0 -44 5 -56 29 -81 31 -31 76
-38 125 -19 56 21 76 131 31 175 -20 21 -34 25 -80 25 -46 0 -60 -4 -80 -25z"/>
<path d="M2087 640 c-72 -57 -29 -190 62 -190 56 0 87 17 107 58 22 47 13 100
-23 129 -37 30 -110 31 -146 3z"/>
<path d="M490 427 c-77 -39 -63 -184 20 -202 74 -16 140 28 140 94 0 55 -17
87 -55 106 -40 18 -72 19 -105 2z"/>
<path d="M952 427 c-27 -16 -62 -70 -62 -96 0 -32 31 -81 60 -96 42 -22 79
-18 122 11 36 25 38 30 38 78 0 45 -4 56 -29 80 -34 32 -94 43 -129 23z"/>
<path d="M1430 433 c-8 -3 -27 -17 -42 -31 -24 -22 -28 -34 -28 -78 0 -48 2
-53 38 -78 62 -43 135 -28 166 35 21 42 20 61 -4 102 -28 48 -81 68 -130 50z"/>
<path d="M1874 425 c-37 -19 -54 -52 -54 -106 0 -92 133 -134 191 -61 27 35
23 122 -8 153 -27 27 -90 34 -129 14z"/>
<path d="M36 389 c-21 -16 -26 -29 -26 -64 0 -49 13 -63 63 -72 30 -5 40 -1
61 22 34 37 33 71 -4 106 -35 34 -58 36 -94 8z"/>
<path d="M2340 381 c-37 -35 -38 -69 -4 -106 21 -23 31 -27 61 -22 50 9 63 23
63 72 0 35 -5 48 -26 64 -36 28 -59 26 -94 -8z"/>
<path d="M251 141 c-27 -37 -26 -55 1 -86 17 -19 31 -25 65 -25 54 0 79 31 69
85 -8 40 -30 55 -80 55 -27 0 -39 -6 -55 -29z"/>
<path d="M1182 154 c-16 -11 -22 -25 -22 -52 0 -57 11 -67 75 -67 64 0 75 10
75 67 0 43 -27 68 -75 68 -17 0 -41 -7 -53 -16z"/>
<path d="M2108 159 c-26 -15 -34 -74 -14 -104 24 -36 93 -36 124 0 27 31 28
49 1 86 -16 23 -28 29 -57 29 -20 0 -45 -5 -54 -11z"/>
</g>
</svg>
