<?xml version="1.0" standalone="no"?>
<!DOCTYPE svg PUBLIC "-//W3C//DTD SVG 20010904//EN"
 "http://www.w3.org/TR/2001/REC-SVG-20010904/DTD/svg10.dtd">
<svg version="1.0" xmlns="http://www.w3.org/2000/svg"
 width="200.000000pt" height="200.000000pt" viewBox="0 0 200.000000 200.000000"
 preserveAspectRatio="xMidYMid meet">
<metadata>
Created by potrace 1.16, written by Peter Selinger 2001-2019
</metadata>
<g transform="translate(0.000000,200.000000) scale(0.008757,-0.008757)"
fill="#000000" stroke="none">
<path d="M9948 22421 l-1438 -416 0 -10456 0 -10455 123 -49 c67 -26 230 -95
362 -153 526 -229 1232 -499 1830 -698 220 -74 401 -134 402 -134 2 0 3 2439
3 5420 l0 5420 1420 0 1420 0 0 1325 0 1325 -1420 0 -1420 0 2 3192 3 3191 85
29 c46 15 91 28 101 28 9 0 619 -187 1357 -415 737 -228 1343 -415 1346 -415
3 0 6 641 6 1424 0 1348 -1 1425 -17 1430 -10 3 -615 190 -1345 416 -730 225
-1340 410 -1355 409 -15 -1 -675 -188 -1465 -418z"/>
<path d="M14900 13355 l0 -8397 163 85 c673 351 1304 781 1837 1252 170 150
474 454 578 576 l72 86 0 1937 0 1936 1905 0 1905 0 0 4460 0 4459 -48 15
c-72 21 -6385 1978 -6399 1983 -10 4 -13 -1678 -13 -8392z m3308 4571 l562
-188 0 -2094 0 -2094 -575 0 -575 0 0 2286 c0 1825 3 2285 13 2282 6 -3 265
-89 575 -192z"/>
<path d="M4570 20747 l-3145 -932 -3 -4458 -2 -4457 1805 0 1805 0 0 -2312 0
-2312 -51 49 c-134 132 -348 389 -459 555 -225 335 -355 638 -422 985 -20 105
-21 144 -25 933 l-4 822 -1325 0 -1325 0 4 -917 c4 -1008 3 -998 73 -1363 376
-1984 2067 -3805 5014 -5397 102 -55 253 -134 335 -176 144 -72 888 -417 899
-417 3 0 6 2745 6 6100 l0 6100 -1840 0 -1840 0 0 2094 0 2094 63 19 c34 10
862 257 1839 548 l1778 530 0 1423 c0 1348 -1 1422 -17 1421 -10 0 -1433 -420
-3163 -932z"/>
<path d="M18827 8688 l-3 -933 -27 -125 c-86 -390 -296 -809 -597 -1195 -717
-916 -2002 -1847 -3695 -2676 -745 -364 -1588 -717 -2197 -919 l-188 -62 0
-1389 c0 -1181 2 -1389 14 -1389 8 0 150 50 317 111 167 61 421 150 564 199
2345 796 4479 1936 5940 3175 290 245 686 627 915 880 808 894 1316 1865 1485
2835 59 345 58 312 62 1408 l4 1012 -1295 0 -1295 0 -4 -932z"/>
</g>
</svg>
