<?xml version="1.0" standalone="no"?>
<!DOCTYPE svg PUBLIC "-//W3C//DTD SVG 20010904//EN"
 "http://www.w3.org/TR/2001/REC-SVG-20010904/DTD/svg10.dtd">
<svg version="1.0" xmlns="http://www.w3.org/2000/svg"
 width="258.000000pt" height="295.000000pt" viewBox="0 0 258.000000 295.000000"
 preserveAspectRatio="xMidYMid meet">
<metadata>
Created by potrace 1.16, written by Peter Selinger 2001-2019
</metadata>
<g transform="translate(0.000000,295.000000) scale(0.100000,-0.100000)"
fill="#3375bb" stroke="none">
<path d="M1225 2878 c-11 -7 -56 -38 -99 -71 -44 -32 -130 -83 -190 -112 -188
-92 -361 -132 -611 -142 -165 -6 -194 -15 -226 -66 -20 -31 -21 -42 -15 -327
19 -958 109 -1360 358 -1596 77 -74 147 -120 378 -249 96 -53 229 -132 296
-176 164 -108 167 -108 340 5 71 46 212 130 314 186 212 117 292 171 370 250
237 238 313 599 346 1646 7 230 5 242 -50 294 -25 23 -36 25 -183 32 -86 4
-188 12 -227 18 -223 34 -431 119 -592 241 -36 27 -78 56 -94 64 -34 18 -87
19 -115 3z m119 -347 c221 -139 477 -224 754 -250 57 -5 106 -11 108 -13 6 -7
-16 -503 -31 -683 -28 -325 -68 -522 -136 -664 -54 -114 -136 -194 -284 -277
-200 -112 -369 -210 -422 -243 l-52 -33 -88 55 c-48 30 -166 98 -262 151 -95
53 -194 111 -220 128 -231 159 -308 444 -343 1270 -6 158 -9 290 -5 294 3 4
53 11 109 16 132 12 273 40 390 79 108 35 291 123 363 173 28 19 52 35 54 35
2 1 32 -17 65 -38z"/>
</g>
</svg>
